<svg width="272" height="250" viewBox="0 0 272 250" fill="none" xmlns="http://www.w3.org/2000/svg">
<path d="M163.625 136V142.375H170H199.75C207.965 142.375 214.625 149.035 214.625 157.25C214.625 165.465 207.965 172.125 199.75 172.125H170H163.625V178.5V195.5V201.875H170H199.75C224.396 201.875 244.375 181.896 244.375 157.25C244.375 132.604 224.396 112.625 199.75 112.625H170H163.625V119V136Z" fill="#D27C2C" stroke="black" stroke-width="12.75"/>
<path d="M182.325 74.375H42.925C39.1694 74.375 36.125 77.4195 36.125 81.175V178.5C36.125 210.187 61.8127 235.875 93.5 235.875H131.75C163.437 235.875 189.125 210.187 189.125 178.5V81.175C189.125 77.4195 186.081 74.375 182.325 74.375Z" fill="#D27C2C" stroke="black" stroke-width="12.75"/>
<rect x="36.125" y="48.875" width="153" height="59.5" rx="29.75" fill="#FFF4D9" stroke="black" stroke-width="12.75"/>
<path d="M65.875 155.125V172.125C65.875 190.903 81.0973 206.125 99.875 206.125H104.125" stroke="black" stroke-width="12.75" stroke-linecap="round"/>
<path d="M70.125 78.625H91.375C100.764 78.625 108.375 71.0138 108.375 61.625V40.375C108.375 30.9862 115.986 23.375 125.375 23.375H129.625" stroke="black" stroke-width="12.75" stroke-linecap="round"/>
<circle cx="140.25" cy="76.5" r="8.5" fill="black"/>
<path d="M155.125 23.375H176.375" stroke="black" stroke-width="12.75" stroke-linecap="round"/>
</svg>
