<svg width="100%" height="100%" viewBox="0 0 55 55" fill="none" xmlns="http://www.w3.org/2000/svg">
<mask id="path-1-outside-1_25_2616" maskUnits="userSpaceOnUse" x="0" y="0" width="55" height="55" fill="black">
<rect fill="white" width="55" height="55"/>
<path fill-rule="evenodd" clip-rule="evenodd" d="M24.8173 5.08247C20.595 5.86087 18.0623 6.8025 15.2395 8.64264C8.51193 13.0284 4.616 20.6206 5.02999 28.5388C5.56182 38.7111 12.3844 46.9688 22.3343 49.4831C25.062 50.1723 29.9902 50.1723 32.718 49.4831C41.2049 47.3386 47.609 40.8371 49.5681 32.3766C50.144 29.8904 50.144 25.1554 49.5681 22.6691C47.6221 14.2649 41.1636 7.67753 32.8309 5.59764C31.0823 5.16103 26.1205 4.84226 24.8173 5.08247ZM34.2981 17.8027C37.7124 20.0758 40.7343 22.1438 41.0137 22.3982C41.5092 22.8493 41.5216 22.9755 41.5216 27.5229C41.5216 32.0703 41.5092 32.1965 41.0137 32.6475C40.2446 33.3476 28.1702 41.345 27.6939 41.4694C27.4185 41.5416 25.1356 40.1532 20.9126 37.3451C17.4112 35.0168 14.3178 32.9033 14.0386 32.6484C13.5433 32.1965 13.5307 32.0698 13.5307 27.5229C13.5307 22.9757 13.5431 22.8493 14.0386 22.3977C14.3178 22.1431 17.3907 20.0386 20.867 17.7212C24.9979 14.9672 27.344 13.5357 27.639 13.5885C27.8873 13.633 30.8839 15.5293 34.2981 17.8027ZM21.6067 20.1445C19.158 21.7814 17.1519 23.1784 17.1485 23.2493C17.1345 23.5466 21.0115 25.9787 21.3142 25.8626C21.495 25.7931 22.7126 25.0185 24.0203 24.1413L26.3975 22.5461V19.8422C26.3975 18.3549 26.3212 17.1448 26.2282 17.1532C26.1352 17.1616 24.0555 18.5075 21.6067 20.1445ZM28.6548 19.8232V22.5461L31.032 24.1413C32.3397 25.0185 33.5573 25.7931 33.7381 25.8626C34.0404 25.9787 37.9167 23.5473 37.9047 23.2493C37.8997 23.1256 29.2632 17.3295 28.8546 17.1758C28.7447 17.1342 28.6548 18.3258 28.6548 19.8232ZM25.3817 26.0706C24.3884 26.7467 23.5476 27.3838 23.5133 27.4863C23.4442 27.6915 27.1571 30.2319 27.5261 30.2319C27.8309 30.2319 31.5893 27.726 31.5893 27.5229C31.5893 27.2894 27.8042 24.8115 27.472 24.8273C27.3155 24.8348 26.3749 25.3942 25.3817 26.0706ZM16.0137 27.5229C16.0137 28.5162 16.0661 29.3289 16.13 29.3289C16.3582 29.3289 18.7225 27.6818 18.7225 27.5229C18.7225 27.3639 16.3582 25.7168 16.13 25.7168C16.0661 25.7168 16.0137 26.5295 16.0137 27.5229ZM37.5713 26.5219C36.9505 26.951 36.4142 27.3861 36.3794 27.489C36.3232 27.6558 38.6352 29.3289 38.9223 29.3289C38.9862 29.3289 39.0386 28.5162 39.0386 27.5229C39.0386 26.5295 38.9623 25.7225 38.8693 25.7292C38.7762 25.736 38.192 26.0927 37.5713 26.5219ZM19.0611 30.3599C18.0679 31.0361 17.2325 31.6648 17.2045 31.7571C17.1611 31.9003 25.6286 37.6559 26.1977 37.8699C26.3076 37.9115 26.3975 36.719 26.3975 35.2202V32.4954L23.8596 30.7993C22.4636 29.8664 21.2191 29.1092 21.0943 29.1167C20.9693 29.1241 20.0544 29.6836 19.0611 30.3599ZM31.1927 30.7993L28.6548 32.4954V35.2202C28.6548 36.719 28.7447 37.9115 28.8546 37.8699C29.2776 37.7108 37.8997 31.9179 37.9047 31.7897C37.911 31.6273 34.1519 29.1032 33.9038 29.1032C33.8088 29.1032 32.5887 29.8664 31.1927 30.7993Z"/>
</mask>
<path fill-rule="evenodd" clip-rule="evenodd" d="M24.8173 5.08247C20.595 5.86087 18.0623 6.8025 15.2395 8.64264C8.51193 13.0284 4.616 20.6206 5.02999 28.5388C5.56182 38.7111 12.3844 46.9688 22.3343 49.4831C25.062 50.1723 29.9902 50.1723 32.718 49.4831C41.2049 47.3386 47.609 40.8371 49.5681 32.3766C50.144 29.8904 50.144 25.1554 49.5681 22.6691C47.6221 14.2649 41.1636 7.67753 32.8309 5.59764C31.0823 5.16103 26.1205 4.84226 24.8173 5.08247ZM34.2981 17.8027C37.7124 20.0758 40.7343 22.1438 41.0137 22.3982C41.5092 22.8493 41.5216 22.9755 41.5216 27.5229C41.5216 32.0703 41.5092 32.1965 41.0137 32.6475C40.2446 33.3476 28.1702 41.345 27.6939 41.4694C27.4185 41.5416 25.1356 40.1532 20.9126 37.3451C17.4112 35.0168 14.3178 32.9033 14.0386 32.6484C13.5433 32.1965 13.5307 32.0698 13.5307 27.5229C13.5307 22.9757 13.5431 22.8493 14.0386 22.3977C14.3178 22.1431 17.3907 20.0386 20.867 17.7212C24.9979 14.9672 27.344 13.5357 27.639 13.5885C27.8873 13.633 30.8839 15.5293 34.2981 17.8027ZM21.6067 20.1445C19.158 21.7814 17.1519 23.1784 17.1485 23.2493C17.1345 23.5466 21.0115 25.9787 21.3142 25.8626C21.495 25.7931 22.7126 25.0185 24.0203 24.1413L26.3975 22.5461V19.8422C26.3975 18.3549 26.3212 17.1448 26.2282 17.1532C26.1352 17.1616 24.0555 18.5075 21.6067 20.1445ZM28.6548 19.8232V22.5461L31.032 24.1413C32.3397 25.0185 33.5573 25.7931 33.7381 25.8626C34.0404 25.9787 37.9167 23.5473 37.9047 23.2493C37.8997 23.1256 29.2632 17.3295 28.8546 17.1758C28.7447 17.1342 28.6548 18.3258 28.6548 19.8232ZM25.3817 26.0706C24.3884 26.7467 23.5476 27.3838 23.5133 27.4863C23.4442 27.6915 27.1571 30.2319 27.5261 30.2319C27.8309 30.2319 31.5893 27.726 31.5893 27.5229C31.5893 27.2894 27.8042 24.8115 27.472 24.8273C27.3155 24.8348 26.3749 25.3942 25.3817 26.0706ZM16.0137 27.5229C16.0137 28.5162 16.0661 29.3289 16.13 29.3289C16.3582 29.3289 18.7225 27.6818 18.7225 27.5229C18.7225 27.3639 16.3582 25.7168 16.13 25.7168C16.0661 25.7168 16.0137 26.5295 16.0137 27.5229ZM37.5713 26.5219C36.9505 26.951 36.4142 27.3861 36.3794 27.489C36.3232 27.6558 38.6352 29.3289 38.9223 29.3289C38.9862 29.3289 39.0386 28.5162 39.0386 27.5229C39.0386 26.5295 38.9623 25.7225 38.8693 25.7292C38.7762 25.736 38.192 26.0927 37.5713 26.5219ZM19.0611 30.3599C18.0679 31.0361 17.2325 31.6648 17.2045 31.7571C17.1611 31.9003 25.6286 37.6559 26.1977 37.8699C26.3076 37.9115 26.3975 36.719 26.3975 35.2202V32.4954L23.8596 30.7993C22.4636 29.8664 21.2191 29.1092 21.0943 29.1167C20.9693 29.1241 20.0544 29.6836 19.0611 30.3599ZM31.1927 30.7993L28.6548 32.4954V35.2202C28.6548 36.719 28.7447 37.9115 28.8546 37.8699C29.2776 37.7108 37.8997 31.9179 37.9047 31.7897C37.911 31.6273 34.1519 29.1032 33.9038 29.1032C33.8088 29.1032 32.5887 29.8664 31.1927 30.7993Z" fill="black"/>
<path fill-rule="evenodd" clip-rule="evenodd" d="M24.8173 5.08247C20.595 5.86087 18.0623 6.8025 15.2395 8.64264C8.51193 13.0284 4.616 20.6206 5.02999 28.5388C5.56182 38.7111 12.3844 46.9688 22.3343 49.4831C25.062 50.1723 29.9902 50.1723 32.718 49.4831C41.2049 47.3386 47.609 40.8371 49.5681 32.3766C50.144 29.8904 50.144 25.1554 49.5681 22.6691C47.6221 14.2649 41.1636 7.67753 32.8309 5.59764C31.0823 5.16103 26.1205 4.84226 24.8173 5.08247ZM34.2981 17.8027C37.7124 20.0758 40.7343 22.1438 41.0137 22.3982C41.5092 22.8493 41.5216 22.9755 41.5216 27.5229C41.5216 32.0703 41.5092 32.1965 41.0137 32.6475C40.2446 33.3476 28.1702 41.345 27.6939 41.4694C27.4185 41.5416 25.1356 40.1532 20.9126 37.3451C17.4112 35.0168 14.3178 32.9033 14.0386 32.6484C13.5433 32.1965 13.5307 32.0698 13.5307 27.5229C13.5307 22.9757 13.5431 22.8493 14.0386 22.3977C14.3178 22.1431 17.3907 20.0386 20.867 17.7212C24.9979 14.9672 27.344 13.5357 27.639 13.5885C27.8873 13.633 30.8839 15.5293 34.2981 17.8027ZM21.6067 20.1445C19.158 21.7814 17.1519 23.1784 17.1485 23.2493C17.1345 23.5466 21.0115 25.9787 21.3142 25.8626C21.495 25.7931 22.7126 25.0185 24.0203 24.1413L26.3975 22.5461V19.8422C26.3975 18.3549 26.3212 17.1448 26.2282 17.1532C26.1352 17.1616 24.0555 18.5075 21.6067 20.1445ZM28.6548 19.8232V22.5461L31.032 24.1413C32.3397 25.0185 33.5573 25.7931 33.7381 25.8626C34.0404 25.9787 37.9167 23.5473 37.9047 23.2493C37.8997 23.1256 29.2632 17.3295 28.8546 17.1758C28.7447 17.1342 28.6548 18.3258 28.6548 19.8232ZM25.3817 26.0706C24.3884 26.7467 23.5476 27.3838 23.5133 27.4863C23.4442 27.6915 27.1571 30.2319 27.5261 30.2319C27.8309 30.2319 31.5893 27.726 31.5893 27.5229C31.5893 27.2894 27.8042 24.8115 27.472 24.8273C27.3155 24.8348 26.3749 25.3942 25.3817 26.0706ZM16.0137 27.5229C16.0137 28.5162 16.0661 29.3289 16.13 29.3289C16.3582 29.3289 18.7225 27.6818 18.7225 27.5229C18.7225 27.3639 16.3582 25.7168 16.13 25.7168C16.0661 25.7168 16.0137 26.5295 16.0137 27.5229ZM37.5713 26.5219C36.9505 26.951 36.4142 27.3861 36.3794 27.489C36.3232 27.6558 38.6352 29.3289 38.9223 29.3289C38.9862 29.3289 39.0386 28.5162 39.0386 27.5229C39.0386 26.5295 38.9623 25.7225 38.8693 25.7292C38.7762 25.736 38.192 26.0927 37.5713 26.5219ZM19.0611 30.3599C18.0679 31.0361 17.2325 31.6648 17.2045 31.7571C17.1611 31.9003 25.6286 37.6559 26.1977 37.8699C26.3076 37.9115 26.3975 36.719 26.3975 35.2202V32.4954L23.8596 30.7993C22.4636 29.8664 21.2191 29.1092 21.0943 29.1167C20.9693 29.1241 20.0544 29.6836 19.0611 30.3599ZM31.1927 30.7993L28.6548 32.4954V35.2202C28.6548 36.719 28.7447 37.9115 28.8546 37.8699C29.2776 37.7108 37.8997 31.9179 37.9047 31.7897C37.911 31.6273 34.1519 29.1032 33.9038 29.1032C33.8088 29.1032 32.5887 29.8664 31.1927 30.7993Z" stroke="white" stroke-width="10" mask="url(#path-1-outside-1_25_2616)"/>
</svg>
