<svg width="55" height="55" fill="none" xmlns="http://www.w3.org/2000/svg">
  <mask id="a" maskUnits="userSpaceOnUse" x="0" y="0" width="55" height="55" fill="#000">
    <path fill="#fff" d="M0 0h55v55H0z"/>
    <path fill-rule="evenodd" clip-rule="evenodd" d="M25.872 5.03c-4.738.482-8.446 1.887-12.016 4.552-1.08.806-3.482 3.207-4.29 4.287-2.33 3.12-3.766 6.527-4.358 10.34-.26 1.678-.28 4.665-.04 6.337a22.482 22.482 0 0 0 2.132 6.9c1.135 2.279 2.24 3.852 3.955 5.629 1.944 2.014 3.865 3.426 6.252 4.594 2.29 1.122 4.255 1.746 6.692 2.125 1.767.275 4.84.275 6.604 0 2.437-.38 4.515-1.035 6.64-2.092 2.466-1.228 3.951-2.3 5.955-4.303s3.077-3.488 4.305-5.953a23.024 23.024 0 0 0 2.136-6.9c.216-1.509.214-4.541-.004-6.074a22.828 22.828 0 0 0-4.384-10.576c-.785-1.041-2.486-2.822-3.52-3.685a22.58 22.58 0 0 0-11.109-4.98c-1.114-.167-4.092-.29-4.95-.202Zm4.47 8.48c5.716 1.22 10.019 5.567 11.18 11.294.172.846.2 1.25.195 2.793-.005 1.515-.037 1.949-.2 2.706-1.043 4.843-4.276 8.71-8.775 10.496-.705.28-1.008.321-1.282.175-.364-.195-.39-.384-.439-3.079-.043-2.397-.061-2.633-.237-3.068-.105-.26-.26-.547-.342-.64-.083-.09-.135-.178-.115-.194.02-.015.384-.114.809-.219 2.918-.722 4.588-2.164 5.275-4.553.262-.911.285-2.92.043-3.825-.188-.703-.585-1.568-.967-2.105-.273-.384-.283-.426-.212-.887.04-.266.062-.94.047-1.496-.023-.834-.06-1.067-.21-1.32l-.182-.309-.654.005c-.752.006-1.32.22-2.501.945l-.702.43-.927-.159c-1.286-.219-3.995-.22-5.307-.003l-.945.157-.402-.277c-.566-.389-1.684-.935-2.157-1.053a3.267 3.267 0 0 0-.832-.072c-.39.024-.452.058-.614.335-.148.252-.185.492-.208 1.32-.015.557.006 1.23.047 1.497.071.46.061.503-.212.887-.38.534-.778 1.399-.969 2.105-.242.896-.218 2.906.046 3.825.683 2.384 2.357 3.83 5.262 4.546.432.106.8.207.82.224.02.017-.027.101-.106.188-.19.21-.413.756-.488 1.194-.058.338-.082.36-.5.468-.24.063-.744.14-1.117.172-.617.053-.72.038-1.147-.171-.55-.27-.78-.495-1.608-1.583-.76-.996-1.145-1.234-1.918-1.183-.295.02-.565.09-.641.166-.117.117-.08.167.333.452.769.53 1.172 1.014 1.65 1.982.517 1.049.961 1.544 1.72 1.914.473.232.593.252 1.403.242.488-.007 1.075-.05 1.305-.095l.418-.083v1.357c0 1.484-.068 1.76-.482 1.947-.316.145-.455.134-1.015-.078-3.995-1.513-7.174-4.816-8.53-8.864-.548-1.635-.663-2.416-.663-4.507 0-1.623.027-2.02.194-2.79.513-2.364 1.458-4.356 2.94-6.198a14.23 14.23 0 0 1 8.294-5.004c1.285-.25 1.346-.254 3.137-.22 1.225.023 1.842.076 2.488.214Z"/>
  </mask>
  <path fill-rule="evenodd" clip-rule="evenodd" d="M25.872 5.03c-4.738.482-8.446 1.887-12.016 4.552-1.08.806-3.482 3.207-4.29 4.287-2.33 3.12-3.766 6.527-4.358 10.34-.26 1.678-.28 4.665-.04 6.337a22.482 22.482 0 0 0 2.132 6.9c1.135 2.279 2.24 3.852 3.955 5.629 1.944 2.014 3.865 3.426 6.252 4.594 2.29 1.122 4.255 1.746 6.692 2.125 1.767.275 4.84.275 6.604 0 2.437-.38 4.515-1.035 6.64-2.092 2.466-1.228 3.951-2.3 5.955-4.303s3.077-3.488 4.305-5.953a23.024 23.024 0 0 0 2.136-6.9c.216-1.509.214-4.541-.004-6.074a22.828 22.828 0 0 0-4.384-10.576c-.785-1.041-2.486-2.822-3.52-3.685a22.58 22.58 0 0 0-11.109-4.98c-1.114-.167-4.092-.29-4.95-.202Zm4.47 8.48c5.716 1.22 10.019 5.567 11.18 11.294.172.846.2 1.25.195 2.793-.005 1.515-.037 1.949-.2 2.706-1.043 4.843-4.276 8.71-8.775 10.496-.705.28-1.008.321-1.282.175-.364-.195-.39-.384-.439-3.079-.043-2.397-.061-2.633-.237-3.068-.105-.26-.26-.547-.342-.64-.083-.09-.135-.178-.115-.194.02-.015.384-.114.809-.219 2.918-.722 4.588-2.164 5.275-4.553.262-.911.285-2.92.043-3.825-.188-.703-.585-1.568-.967-2.105-.273-.384-.283-.426-.212-.887.04-.266.062-.94.047-1.496-.023-.834-.06-1.067-.21-1.32l-.182-.309-.654.005c-.752.006-1.32.22-2.501.945l-.702.43-.927-.159c-1.286-.219-3.995-.22-5.307-.003l-.945.157-.402-.277c-.566-.389-1.684-.935-2.157-1.053a3.267 3.267 0 0 0-.832-.072c-.39.024-.452.058-.614.335-.148.252-.185.492-.208 1.32-.015.557.006 1.23.047 1.497.071.46.061.503-.212.887-.38.534-.778 1.399-.969 2.105-.242.896-.218 2.906.046 3.825.683 2.384 2.357 3.83 5.262 4.546.432.106.8.207.82.224.02.017-.027.101-.106.188-.19.21-.413.756-.488 1.194-.058.338-.082.36-.5.468-.24.063-.744.14-1.117.172-.617.053-.72.038-1.147-.171-.55-.27-.78-.495-1.608-1.583-.76-.996-1.145-1.234-1.918-1.183-.295.02-.565.09-.641.166-.117.117-.08.167.333.452.769.53 1.172 1.014 1.65 1.982.517 1.049.961 1.544 1.72 1.914.473.232.593.252 1.403.242.488-.007 1.075-.05 1.305-.095l.418-.083v1.357c0 1.484-.068 1.76-.482 1.947-.316.145-.455.134-1.015-.078-3.995-1.513-7.174-4.816-8.53-8.864-.548-1.635-.663-2.416-.663-4.507 0-1.623.027-2.02.194-2.79.513-2.364 1.458-4.356 2.94-6.198a14.23 14.23 0 0 1 8.294-5.004c1.285-.25 1.346-.254 3.137-.22 1.225.023 1.842.076 2.488.214Z" fill="#000"/>
  <path d="M25.872 5.03 25.366.054l.506 4.974ZM13.856 9.581l-2.991-4.007 2.99 4.007Zm-4.29 4.287-4.005-2.993 4.006 2.993Zm-4.358 10.34-4.94-.767 4.94.766Zm-.04 6.337 4.95-.708-4.95.707Zm2.132 6.9-4.476 2.228L7.3 37.447Zm3.955 5.629-3.598 3.472 3.598-3.472Zm6.252 4.594 2.2-4.49-2.2 4.49Zm6.692 2.125-.768 4.94.768-4.94Zm6.604 0-.77-4.94.77 4.94Zm6.64-2.092-2.228-4.477 2.227 4.477Zm5.955-4.303 3.535 3.536-3.535-3.536Zm4.305-5.953-4.476-2.23 4.476 2.23Zm2.136-6.9 4.95.71-4.95-.71Zm-.004-6.074 4.95-.705-4.95.705ZM45.45 13.896l3.993-3.01-3.993 3.01Zm-3.52-3.685 3.205-3.838-3.204 3.838Zm-11.109-4.98-.746 4.945.746-4.944Zm-.48 8.28 1.044-4.89-1.044 4.89Zm11.18 11.293-4.9.994 4.9-.994Zm.195 2.793-5-.015 5 .015Zm-.2 2.706 4.888 1.053-4.888-1.053ZM32.742 40.8l-1.845-4.647 1.845 4.647Zm-1.282.175-2.358 4.408 2.358-4.408Zm-.439-3.079 5-.09-5 .09Zm-.237-3.068L26.148 36.7l4.636-1.873Zm-.342-.64-3.707 3.357.002.002 3.705-3.358Zm-.115-.194-3.06-3.954-.009.007 3.07 3.947Zm.809-.219-1.201-4.854 1.2 4.854Zm5.275-4.553-4.806-1.381 4.806 1.381Zm.043-3.825-4.83 1.29v.001l4.83-1.29Zm-.967-2.105 4.074-2.898-4.074 2.898Zm-.212-.887-4.942-.763 4.942.763Zm.047-1.496 4.998-.136-4.998.136Zm-.21-1.32-4.303 2.546 4.303-2.547Zm-.182-.309 4.302-2.547-1.465-2.475-2.877.022.04 5Zm-.654.005.039 5-.04-5Zm-2.501.945-2.613-4.263 2.613 4.263Zm-.702.43-.842 4.928 1.853.317 1.602-.982-2.613-4.263Zm-.927-.159.842-4.928-.842 4.928Zm-5.307-.003.82 4.932-.82-4.932Zm-.945.157-2.833 4.12 1.662 1.143 1.99-.33-.819-4.933Zm-.402-.277-2.834 4.12 2.834-4.12Zm-2.157-1.053 1.214-4.85-1.214 4.85Zm-.832-.072-.317-4.99h-.003l.32 4.99Zm-.614.335-4.314-2.527 4.314 2.527Zm-.208 1.32-4.998-.136 4.998.137Zm.047 1.497 4.941-.763-4.94.763Zm-.212.887-4.074-2.899v.001l4.074 2.898Zm-.969 2.105 4.827 1.306-4.827-1.306Zm.046 3.825L13.786 30.6l4.807-1.379Zm5.262 4.546-1.198 4.854h.001l1.197-4.854Zm.82.224 3.216-3.83-.008-.006-3.207 3.836Zm-.106.188 3.707 3.356-3.707-3.356Zm-.488 1.194 4.928.842-4.928-.842Zm-.5.468-1.253-4.84 1.253 4.84Zm-1.117.172-.426-4.982h-.001l.427 4.982Zm-1.147-.171-2.197 4.492 2.197-4.492Zm-1.608-1.583 3.977-3.03-3.977 3.03Zm-1.918-1.183-.33-4.989.33 4.99Zm-.641.166 3.534 3.536-3.534-3.536Zm.333.452 2.837-4.117-.001-.001-2.836 4.118Zm1.65 1.982 4.484-2.211-4.484 2.211Zm1.72 1.914-2.197 4.492 2.196-4.492Zm1.403.242-.067-5 .067 5Zm1.305-.095-.973-4.905.973 4.905Zm.418-.083h5v-6.09l-5.973 1.185.973 4.905Zm-.482 3.304-2.072-4.55 2.072 4.55Zm-1.015-.078 1.771-4.676-1.77 4.676Zm-8.53-8.864 4.74-1.59-4.74 1.59Zm-.469-7.297 4.887 1.06-4.887-1.06Zm2.94-6.198 3.895 3.135-3.895-3.135Zm8.294-5.004.951 4.908-.951-4.908Zm3.137-.22.093-5-.093 5ZM25.365.055c-5.574.568-10.155 2.277-14.5 5.52l5.981 8.014c2.795-2.086 5.63-3.188 9.534-3.586L25.365.055Zm-14.5 5.52c-.847.632-1.93 1.652-2.791 2.512-.86.86-1.88 1.943-2.513 2.79l8.011 5.985c.175-.234.759-.89 1.571-1.703.813-.812 1.47-1.396 1.704-1.57l-5.982-8.014ZM5.56 10.876C2.746 14.645.985 18.814.267 23.443l9.882 1.533c.465-2.997 1.577-5.642 3.423-8.114l-8.01-5.985ZM.267 23.443c-.335 2.164-.358 5.648-.049 7.811l9.9-1.415c-.17-1.18-.154-3.67.031-4.863L.267 23.442Zm-.05 7.811a27.482 27.482 0 0 0 2.607 8.421l8.951-4.457a17.482 17.482 0 0 1-1.658-5.379l-9.9 1.415Zm2.607 8.422c1.355 2.721 2.753 4.716 4.833 6.872l7.196-6.945c-1.35-1.398-2.163-2.549-3.078-4.385l-8.951 4.458Zm4.834 6.872c2.325 2.41 4.714 4.175 7.65 5.613l4.398-8.981c-1.838-.9-3.291-1.958-4.853-3.577l-7.195 6.945Zm7.65 5.613c2.727 1.335 5.172 2.115 8.123 2.575l1.537-9.882c-1.924-.299-3.407-.766-5.262-1.674l-4.398 8.98Zm8.123 2.575c2.276.354 5.868.354 8.143-.001l-1.54-9.88c-1.255.195-3.808.195-5.066 0l-1.537 9.88Zm8.143-.001c2.922-.456 5.494-1.261 8.096-2.556l-4.455-8.953c-1.648.82-3.232 1.324-5.182 1.628l1.54 9.88Zm8.096-2.556c2.964-1.475 4.888-2.87 7.263-5.243l-7.07-7.073c-1.632 1.632-2.678 2.383-4.648 3.363l4.455 8.953Zm7.263-5.243c2.375-2.374 3.77-4.297 5.246-7.26l-8.952-4.458c-.98 1.968-1.731 3.013-3.364 4.645l7.07 7.073Zm5.246-7.26a28.029 28.029 0 0 0 2.61-8.42l-9.9-1.42c-.269 1.88-.854 3.76-1.662 5.382l8.952 4.458Zm2.61-8.42c.284-1.985.28-5.494-.004-7.488l-9.9 1.41c.153 1.072.153 3.627.005 4.659l9.898 1.42Zm-.004-7.488a27.829 27.829 0 0 0-5.341-12.88l-7.986 6.018a17.831 17.831 0 0 1 3.427 8.273l9.9-1.411Zm-5.341-12.88c-1.022-1.357-2.99-3.415-4.308-4.514l-6.408 7.677c.75.625 2.183 2.13 2.73 2.855l7.986-6.019Zm-4.308-4.515A27.58 27.58 0 0 0 31.568.288l-1.492 9.888a17.58 17.58 0 0 1 8.652 3.874l6.408-7.678ZM31.568.288C30.722.16 29.466.08 28.455.038c-.941-.038-2.25-.069-3.09.017l1.014 9.948c-.07.007.049-.005.45-.003.344.002.768.012 1.218.03.971.04 1.761.105 2.03.146L31.567.288ZM29.298 18.4c3.77.805 6.558 3.622 7.324 7.398l9.8-1.987c-1.557-7.678-7.374-13.555-15.036-15.19l-2.087 9.78Zm7.324 7.398c.06.292.068.377.076.489.013.196.021.515.019 1.295l10 .03c.005-1.662-.023-2.461-.295-3.801l-9.8 1.987Zm.095 1.784a20.441 20.441 0 0 1-.027 1.284 2.31 2.31 0 0 1-.06.385l9.775 2.105c.277-1.285.307-2.144.312-3.744l-10-.03Zm-.088 1.668c-.701 3.258-2.826 5.748-5.732 6.902l3.69 9.294c6.093-2.419 10.434-7.662 11.818-14.09L36.63 29.25Zm-5.732 6.902c-.305.121-.077 0 .368-.06.28-.038.696-.062 1.197.018.52.082.978.252 1.357.455l-4.717 8.818c2.551 1.364 4.985.262 5.485.063l-3.69-9.294Zm2.922.413c.07.038.352.19.679.455.363.296.706.67.988 1.121.503.806.584 1.51.586 1.525.01.07-.003.008-.017-.368a83.66 83.66 0 0 1-.035-1.493l-9.998.18c.021 1.175.037 2.297.15 3.093.06.423.22 1.38.832 2.36a5.5 5.5 0 0 0 2.098 1.944l4.717-8.817Zm2.201 1.24c-.034-1.891.013-3.333-.6-4.852L26.147 36.7a3.084 3.084 0 0 1-.137-.451c-.046-.2-.05-.315-.044-.238.007.083.016.253.026.598.01.336.018.775.029 1.376l9.998-.18Zm-.6-4.852a9.073 9.073 0 0 0-.407-.867c-.063-.118-.37-.708-.866-1.256l-7.41 6.715a4.519 4.519 0 0 1-.448-.585 2.522 2.522 0 0 1-.093-.157.91.91 0 0 1-.048-.103l9.271-3.747Zm-1.272-2.12c.114.124.306.353.505.69.075.127.315.54.482 1.13a4.988 4.988 0 0 1-1.74 5.288l-6.137-7.895c-1.462 1.137-1.848 2.67-1.92 3.559a5.043 5.043 0 0 0 .177 1.776c.174.615.428 1.057.524 1.22.24.408.5.726.696.943l7.413-6.712Zm-.76 7.114a4.984 4.984 0 0 1-1.407.763c-.082.029-.14.046-.143.047l.05-.014c.103-.028.263-.07.45-.116l-2.403-9.707c-.24.06-.473.12-.664.171-.09.025-.2.055-.305.087a6.277 6.277 0 0 0-.54.19 5.049 5.049 0 0 0-.33.15c-.091.046-.439.22-.83.521l6.122 7.908Zm-1.05.68c1.976-.489 3.91-1.314 5.539-2.72 1.68-1.449 2.757-3.278 3.34-5.304l-9.612-2.763c-.104.362-.205.448-.262.497-.108.093-.467.35-1.408.583l2.402 9.707Zm8.878-8.024c.318-1.105.395-2.368.405-3.24.01-.868-.038-2.14-.337-3.257l-9.66 2.581c-.03-.107-.037-.162-.034-.145.002.01.007.052.014.125.012.15.02.353.018.583a6.46 6.46 0 0 1-.032.587 2.11 2.11 0 0 1-.017.132c-.004.02.004-.03.032-.13l9.611 2.764Zm.069-6.497c-.326-1.22-.961-2.641-1.724-3.713l-8.148 5.797c-.03-.042-.028-.044-.003.001a2.58 2.58 0 0 1 .177.388 1.826 1.826 0 0 1 .036.108l9.662-2.58Zm-1.724-3.714c-.083-.116-.01-.02.08.132.118.202.336.615.473 1.188.138.576.13 1.047.115 1.289-.011.182-.034.305-.013.166l-9.883-1.526c-.014.09-.062.393-.083.724-.025.391-.027.983.14 1.676.164.69.432 1.214.627 1.546.166.282.343.528.397.604l8.147-5.799Zm.655 2.775c.114-.736.12-1.785.104-2.395l-9.996.272a10.113 10.113 0 0 1-.01.748c-.002.016-.002.014 0-.002.001-.012.007-.067.02-.15l9.882 1.527Zm.104-2.396c-.017-.636.006-2.191-.906-3.731l-8.605 5.095a3.92 3.92 0 0 1-.482-1.32c-.019-.117-.02-.174-.016-.115.003.055.008.158.013.344l9.996-.273Zm-.905-3.73-.183-.309-8.605 5.094.182.308 8.606-5.094Zm-4.525-2.762-.654.006.08 10 .653-.006-.08-10Zm-.654.006c-2.144.016-3.674.822-5.074 1.68l5.226 8.527c.243-.15.402-.24.505-.294.101-.053.112-.053.06-.033-.029.01-.073.026-.131.042a2.146 2.146 0 0 1-.507.077l-.079-10Zm-5.074 1.68-.702.431 5.226 8.526.702-.43-5.226-8.526Zm2.753-.235-.927-.158-1.684 9.857.927.158 1.684-9.857Zm-.928-.158c-1.056-.18-2.384-.237-3.481-.237-1.102-.001-2.428.054-3.486.23l1.639 9.864c.252-.042.937-.095 1.84-.094.907 0 1.577.055 1.805.094l1.683-9.857Zm-6.967-.007-.945.156 1.638 9.865.945-.157-1.638-9.864Zm2.707.969-.402-.277-5.666 8.24.402.277 5.666-8.24Zm-.402-.276a14.297 14.297 0 0 0-1.752-1.002c-.44-.215-1.24-.586-2.024-.783l-2.428 9.701c-.138-.034-.224-.065-.237-.07a5.152 5.152 0 0 1 .301.137c.125.062.247.126.349.183.111.063.148.09.124.073l5.667-8.24Zm-3.776-1.784a8.203 8.203 0 0 0-2.363-.212l.634 9.98a2.667 2.667 0 0 1-.327 0 2.971 2.971 0 0 1-.373-.069l2.429-9.7Zm-2.366-.212c-.114.007-.424.027-.775.088a5.481 5.481 0 0 0-1.697.588c-1.433.784-2.085 2.034-2.136 2.122l8.628 5.055-.02.032a4.147 4.147 0 0 1-.312.436 4.629 4.629 0 0 1-2.748 1.619c-.225.039-.381.044-.301.04l-.639-9.98Zm-4.608 2.798c-.897 1.53-.875 3.08-.892 3.711l9.996.273c.005-.184.01-.286.013-.341.004-.06.003-.006-.015.107a3.922 3.922 0 0 1-.474 1.305l-8.628-5.055Zm-.892 3.712c-.017.61-.01 1.66.104 2.395l9.882-1.526c.013.082.019.137.02.149a5.434 5.434 0 0 1-.008-.183 10.209 10.209 0 0 1-.002-.564l-9.996-.271Zm.104 2.395c.021.14-.002.016-.014-.166a4.375 4.375 0 0 1 .116-1.289c.137-.573.355-.986.473-1.188.09-.152.163-.248.08-.132l8.147 5.799c.054-.076.231-.322.397-.604.195-.332.462-.856.628-1.546a5.628 5.628 0 0 0 .14-1.676c-.022-.331-.07-.633-.085-.724l-9.882 1.526Zm.654-2.774c-.76 1.07-1.393 2.487-1.72 3.699l9.653 2.61a3.12 3.12 0 0 1 .219-.51c.025-.047.027-.044-.003-.002l-8.149-5.797Zm-1.72 3.698c-.305 1.124-.35 2.404-.34 3.268.01.877.089 2.137.405 3.24l9.613-2.756c.027.096.034.143.03.122a2.187 2.187 0 0 1-.017-.136 6.44 6.44 0 0 1-.032-.588 6.267 6.267 0 0 1 .03-.697c.002-.015-.006.045-.036.158l-9.653-2.611Zm.065 6.509c.582 2.027 1.66 3.855 3.336 5.303 1.627 1.405 3.559 2.23 5.535 2.718l2.396-9.708c-.93-.23-1.287-.485-1.394-.578-.058-.05-.158-.136-.26-.492L13.786 30.6Zm8.872 8.022c.186.046.346.087.446.114l.04.011c-.006-.002-.071-.021-.163-.054a4.694 4.694 0 0 1-.637-.28 5 5 0 0 1-.875-.586l6.414-7.672a5.073 5.073 0 0 0-1.826-.974 11.935 11.935 0 0 0-.321-.092 29.827 29.827 0 0 0-.684-.176l-2.394 9.709Zm-1.197-.802a4.986 4.986 0 0 1-1.63-5.03 4.824 4.824 0 0 1 .48-1.2c.21-.369.42-.622.55-.766l7.415 6.71c.21-.231.483-.57.732-1.007.102-.18.356-.644.518-1.286a5.013 5.013 0 0 0-1.635-5.08l-6.43 7.66Zm-.599-6.997c-.69.762-1.056 1.603-1.208 1.975a8.374 8.374 0 0 0-.502 1.734l9.857 1.682a1.64 1.64 0 0 1-.1.37c-.016.04-.052.124-.12.244a3.86 3.86 0 0 1-.513.707l-7.414-6.712Zm-1.71 3.708c-.022.131.018-.164.136-.522a4.733 4.733 0 0 1 2.825-2.936c.202-.073.355-.108.215-.072l2.506 9.68c.07-.017.383-.095.709-.214a5.267 5.267 0 0 0 3.244-3.33c.15-.46.216-.884.223-.922l-9.858-1.684Zm3.176-3.53.09-.022a3.683 3.683 0 0 1-.267.04c-.053.007-.092.01-.113.012l.853 9.964a13.148 13.148 0 0 0 1.944-.313L22.328 31Zm-.291.03c-.147.013-.142.01-.085.009.076-.002.302-.005.605.04.672.1 1.142.36.957.27l-4.394 8.984c.242.118.977.49 1.961.637.832.124 1.596.042 1.81.024l-.854-9.964Zm1.477.32c-.015-.008.094.044.246.147a2.836 2.836 0 0 1 .364.296c.031.03.045.047.039.04a10.964 10.964 0 0 1-.231-.285c-.07-.089-.15-.194-.246-.32l-7.955 6.06c.387.508.856 1.118 1.38 1.633.7.69 1.374 1.1 2.01 1.412l4.393-8.984Zm.172-.122c-.409-.536-1.168-1.507-2.306-2.21-1.447-.892-2.872-1.001-3.918-.932l.657 9.978c-.075.005-.368.02-.77-.059a3.694 3.694 0 0 1-1.22-.476 2.81 2.81 0 0 1-.54-.423c-.032-.032.005.003.142.182l7.955-6.06Zm-6.225-3.142a7.246 7.246 0 0 0-1.322.209c-.225.058-.536.15-.881.3a5.282 5.282 0 0 0-1.643 1.11l7.07 7.072a4.804 4.804 0 0 1-1.462.998 3.996 3.996 0 0 1-.586.203 2.77 2.77 0 0 1-.517.086l-.659-9.978Zm-3.846 1.618c-.07.07-.995.927-1.366 2.38-.499 1.957.272 3.51.842 4.284.454.617.959 1.004 1.074 1.093.187.146.375.276.481.35l5.673-8.236c-.1-.069-.072-.052-.005 0a4.618 4.618 0 0 1 .83.864c.523.712 1.281 2.212.795 4.118-.358 1.402-1.243 2.209-1.255 2.22l-7.07-7.073Zm1.03 8.106c.069.047.075.056.049.033a1.007 1.007 0 0 1-.12-.125.96.96 0 0 1-.045-.057l-.004-.006.04.07c.021.04.049.092.084.163l8.967-4.425c-.795-1.613-1.722-2.802-3.296-3.887l-5.675 8.234Zm.003.077c.821 1.665 1.936 3.18 4.008 4.194l4.393-8.983c.034.017.128.066.248.154.125.092.236.194.324.293.16.177.155.242-.004-.081l-8.969 4.423Zm4.008 4.194c.308.15.992.487 1.925.648.727.125 1.437.105 1.743.101l-.135-9.999-.208.002h-.068a3.16 3.16 0 0 1 .362.04c.249.043.474.11.655.178.137.052.213.093.119.047l-4.393 8.983Zm3.667.75c.54-.008 1.51-.051 2.212-.191l-1.948-9.809c.088-.017.15-.026.168-.029l.023-.003a8.11 8.11 0 0 1-.588.032l.133 10Zm2.211-.19.418-.084-1.946-9.809-.418.083 1.946 9.81Zm-5.555-4.988v1.357h10v-1.357h-10Zm0 1.357c0 .353-.004.537-.01.634-.006.124-.007-.061.07-.375.091-.366.322-1.051.91-1.738a4.33 4.33 0 0 1 1.476-1.124l4.144 9.101a5.678 5.678 0 0 0 1.977-1.475 5.722 5.722 0 0 0 1.201-2.362c.244-.988.232-2.09.232-2.661h-10Zm2.446-2.603c.043-.02.306-.14.688-.232a4.367 4.367 0 0 1 1.352-.108c.403.03.69.111.784.139.088.026.115.04.005-.003l-3.543 9.352c.198.075 1.02.408 1.985.482a5.765 5.765 0 0 0 2.874-.53l-4.145-9.1Zm2.828-.204c-2.593-.982-4.68-3.152-5.56-5.777L9.21 33.605c1.834 5.471 6.103 9.907 11.5 11.951l3.542-9.352Zm-5.56-5.777c-.23-.687-.296-.976-.332-1.221-.042-.288-.072-.71-.072-1.697h-10c0 1.104.027 2.118.179 3.152.158 1.077.425 1.996.743 2.944l9.481-3.178Zm-.404-2.918c0-.828.008-1.167.022-1.367.007-.098.011-.144.059-.363l-9.773-2.12c-.286 1.32-.308 2.162-.308 3.85h10Zm.08-1.73c.353-1.623.966-2.901 1.95-4.123l-7.792-6.27c-1.98 2.462-3.257 5.168-3.93 8.273l9.773 2.12Zm1.95-4.123a9.231 9.231 0 0 1 5.349-3.23l-1.902-9.818a19.23 19.23 0 0 0-11.239 6.779l7.791 6.27Zm5.349-3.23c.695-.135.732-.134.777-.137a4.94 4.94 0 0 1 .337-.007c.226 0 .52.005.979.014l.186-9.998c-.807-.015-1.529-.032-2.201.015-.755.053-1.39.18-1.98.295l1.902 9.817Zm2.092-.13c1.127.02 1.365.067 1.539.105l2.087-9.78c-1.12-.239-2.115-.299-3.439-.323l-.187 9.998Z" fill="#fff" mask="url(#a)"/>
</svg>