<svg width="55" height="55" viewBox="0 0 55 55" fill="none" xmlns="http://www.w3.org/2000/svg">
<mask id="path-1-outside-1_132_2667" maskUnits="userSpaceOnUse" x="0" y="0" width="55" height="55" fill="black">
<rect fill="white" width="55" height="55"/>
<path fill-rule="evenodd" clip-rule="evenodd" d="M26.7636 5.0104C25.8577 5.03739 24.708 5.15112 23.7955 5.304C19.5709 6.0118 15.7409 7.84849 12.5056 10.7182C12.1247 11.056 11.0526 12.1275 10.7107 12.5119C7.65888 15.9439 5.74881 20.1217 5.17424 24.6217C5.04224 25.6557 5 26.3533 5 27.5008C5 28.4273 5.01673 28.8287 5.08693 29.5887C5.505 34.114 7.27087 38.3705 10.1837 41.8744C11.135 43.0187 12.2813 44.1441 13.44 45.0713C17.9976 48.7183 23.7279 50.4351 29.5778 49.906C34.081 49.4988 38.3869 47.717 41.8681 44.8204C42.4571 44.3303 42.7804 44.0326 43.4303 43.382C44.6905 42.1203 45.6661 40.9005 46.5647 39.4631C48.2412 36.7814 49.2846 33.9728 49.7596 30.8634C49.93 29.7475 50 28.7687 50 27.5008C50 26.4472 49.9725 25.9183 49.8697 24.9953C49.3117 19.9879 47.1098 15.3543 43.5836 11.7673C42.2872 10.4486 41.0169 9.41965 39.504 8.46297C35.717 6.06819 31.3131 4.87477 26.7636 5.0104ZM18.4638 13.2003C19.0657 13.3436 19.5873 13.6241 20.019 14.0367C20.5515 14.5454 20.868 15.1148 21.0284 15.8525C21.0912 16.1413 21.0862 16.9037 21.0195 17.2006C20.7131 18.5643 19.6968 19.5663 18.3479 19.8345C17.9978 19.9041 17.4568 19.9041 17.1067 19.8345C15.7692 19.5686 14.7286 18.5509 14.442 17.2286C14.3493 16.8009 14.3476 16.2344 14.4377 15.8046C14.5758 15.1456 14.8711 14.6058 15.3623 14.1148C15.9141 13.5633 16.5223 13.2591 17.3096 13.1411C17.3458 13.1356 17.5684 13.1344 17.8042 13.1382C18.1693 13.1442 18.2673 13.1535 18.4638 13.2003ZM36.1318 21.7762C39.1943 22.0973 41.2144 24.0374 41.7359 27.1583C41.875 27.9912 41.8647 27.4488 41.8728 34.3524L41.8801 40.6436H36.2301L36.2223 35.4733C36.2166 31.6827 36.2076 30.2532 36.1887 30.1162C36.0525 29.1279 35.8797 28.5879 35.5314 28.0626C35.0143 27.2828 34.2215 26.8991 33.1286 26.8998C32.3331 26.9002 31.7017 27.073 31.1499 27.4411C30.9295 27.588 30.5309 27.9932 30.3774 28.2261C29.9879 28.8174 29.7682 29.5475 29.6996 30.4788C29.6851 30.6767 29.6769 32.5461 29.6769 35.7152L29.6768 40.6438L24.2352 40.6326L24.2242 22.2921H29.6768V24.7388L29.8338 24.5099C30.4954 23.5456 31.4551 22.7514 32.5352 22.2744C33.2485 21.9594 33.9549 21.794 34.8435 21.7337C35.0666 21.7186 35.8189 21.7434 36.1318 21.7762ZM20.5965 40.6438L14.9131 40.6326L14.902 22.2921H20.5965V40.6438Z"/>
</mask>
<path fill-rule="evenodd" clip-rule="evenodd" d="M26.7636 5.0104C25.8577 5.03739 24.708 5.15112 23.7955 5.304C19.5709 6.0118 15.7409 7.84849 12.5056 10.7182C12.1247 11.056 11.0526 12.1275 10.7107 12.5119C7.65888 15.9439 5.74881 20.1217 5.17424 24.6217C5.04224 25.6557 5 26.3533 5 27.5008C5 28.4273 5.01673 28.8287 5.08693 29.5887C5.505 34.114 7.27087 38.3705 10.1837 41.8744C11.135 43.0187 12.2813 44.1441 13.44 45.0713C17.9976 48.7183 23.7279 50.4351 29.5778 49.906C34.081 49.4988 38.3869 47.717 41.8681 44.8204C42.4571 44.3303 42.7804 44.0326 43.4303 43.382C44.6905 42.1203 45.6661 40.9005 46.5647 39.4631C48.2412 36.7814 49.2846 33.9728 49.7596 30.8634C49.93 29.7475 50 28.7687 50 27.5008C50 26.4472 49.9725 25.9183 49.8697 24.9953C49.3117 19.9879 47.1098 15.3543 43.5836 11.7673C42.2872 10.4486 41.0169 9.41965 39.504 8.46297C35.717 6.06819 31.3131 4.87477 26.7636 5.0104ZM18.4638 13.2003C19.0657 13.3436 19.5873 13.6241 20.019 14.0367C20.5515 14.5454 20.868 15.1148 21.0284 15.8525C21.0912 16.1413 21.0862 16.9037 21.0195 17.2006C20.7131 18.5643 19.6968 19.5663 18.3479 19.8345C17.9978 19.9041 17.4568 19.9041 17.1067 19.8345C15.7692 19.5686 14.7286 18.5509 14.442 17.2286C14.3493 16.8009 14.3476 16.2344 14.4377 15.8046C14.5758 15.1456 14.8711 14.6058 15.3623 14.1148C15.9141 13.5633 16.5223 13.2591 17.3096 13.1411C17.3458 13.1356 17.5684 13.1344 17.8042 13.1382C18.1693 13.1442 18.2673 13.1535 18.4638 13.2003ZM36.1318 21.7762C39.1943 22.0973 41.2144 24.0374 41.7359 27.1583C41.875 27.9912 41.8647 27.4488 41.8728 34.3524L41.8801 40.6436H36.2301L36.2223 35.4733C36.2166 31.6827 36.2076 30.2532 36.1887 30.1162C36.0525 29.1279 35.8797 28.5879 35.5314 28.0626C35.0143 27.2828 34.2215 26.8991 33.1286 26.8998C32.3331 26.9002 31.7017 27.073 31.1499 27.4411C30.9295 27.588 30.5309 27.9932 30.3774 28.2261C29.9879 28.8174 29.7682 29.5475 29.6996 30.4788C29.6851 30.6767 29.6769 32.5461 29.6769 35.7152L29.6768 40.6438L24.2352 40.6326L24.2242 22.2921H29.6768V24.7388L29.8338 24.5099C30.4954 23.5456 31.4551 22.7514 32.5352 22.2744C33.2485 21.9594 33.9549 21.794 34.8435 21.7337C35.0666 21.7186 35.8189 21.7434 36.1318 21.7762ZM20.5965 40.6438L14.9131 40.6326L14.902 22.2921H20.5965V40.6438Z" fill="black"/>
<path fill-rule="evenodd" clip-rule="evenodd" d="M26.7636 5.0104C25.8577 5.03739 24.708 5.15112 23.7955 5.304C19.5709 6.0118 15.7409 7.84849 12.5056 10.7182C12.1247 11.056 11.0526 12.1275 10.7107 12.5119C7.65888 15.9439 5.74881 20.1217 5.17424 24.6217C5.04224 25.6557 5 26.3533 5 27.5008C5 28.4273 5.01673 28.8287 5.08693 29.5887C5.505 34.114 7.27087 38.3705 10.1837 41.8744C11.135 43.0187 12.2813 44.1441 13.44 45.0713C17.9976 48.7183 23.7279 50.4351 29.5778 49.906C34.081 49.4988 38.3869 47.717 41.8681 44.8204C42.4571 44.3303 42.7804 44.0326 43.4303 43.382C44.6905 42.1203 45.6661 40.9005 46.5647 39.4631C48.2412 36.7814 49.2846 33.9728 49.7596 30.8634C49.93 29.7475 50 28.7687 50 27.5008C50 26.4472 49.9725 25.9183 49.8697 24.9953C49.3117 19.9879 47.1098 15.3543 43.5836 11.7673C42.2872 10.4486 41.0169 9.41965 39.504 8.46297C35.717 6.06819 31.3131 4.87477 26.7636 5.0104ZM18.4638 13.2003C19.0657 13.3436 19.5873 13.6241 20.019 14.0367C20.5515 14.5454 20.868 15.1148 21.0284 15.8525C21.0912 16.1413 21.0862 16.9037 21.0195 17.2006C20.7131 18.5643 19.6968 19.5663 18.3479 19.8345C17.9978 19.9041 17.4568 19.9041 17.1067 19.8345C15.7692 19.5686 14.7286 18.5509 14.442 17.2286C14.3493 16.8009 14.3476 16.2344 14.4377 15.8046C14.5758 15.1456 14.8711 14.6058 15.3623 14.1148C15.9141 13.5633 16.5223 13.2591 17.3096 13.1411C17.3458 13.1356 17.5684 13.1344 17.8042 13.1382C18.1693 13.1442 18.2673 13.1535 18.4638 13.2003ZM36.1318 21.7762C39.1943 22.0973 41.2144 24.0374 41.7359 27.1583C41.875 27.9912 41.8647 27.4488 41.8728 34.3524L41.8801 40.6436H36.2301L36.2223 35.4733C36.2166 31.6827 36.2076 30.2532 36.1887 30.1162C36.0525 29.1279 35.8797 28.5879 35.5314 28.0626C35.0143 27.2828 34.2215 26.8991 33.1286 26.8998C32.3331 26.9002 31.7017 27.073 31.1499 27.4411C30.9295 27.588 30.5309 27.9932 30.3774 28.2261C29.9879 28.8174 29.7682 29.5475 29.6996 30.4788C29.6851 30.6767 29.6769 32.5461 29.6769 35.7152L29.6768 40.6438L24.2352 40.6326L24.2242 22.2921H29.6768V24.7388L29.8338 24.5099C30.4954 23.5456 31.4551 22.7514 32.5352 22.2744C33.2485 21.9594 33.9549 21.794 34.8435 21.7337C35.0666 21.7186 35.8189 21.7434 36.1318 21.7762ZM20.5965 40.6438L14.9131 40.6326L14.902 22.2921H20.5965V40.6438Z" stroke="white" stroke-width="10" mask="url(#path-1-outside-1_132_2667)"/>
</svg>
